<?xml version="1.0" encoding="utf-8"?>
<!-- Generator: Adobe Illustrator 16.0.0, SVG Export Plug-In . SVG Version: 6.00 Build 0)  -->
<!DOCTYPE svg PUBLIC "-//W3C//DTD SVG 1.1//EN" "http://www.w3.org/Graphics/SVG/1.1/DTD/svg11.dtd">
<svg version="1.1" id="logo" xmlns="http://www.w3.org/2000/svg" xmlns:xlink="http://www.w3.org/1999/xlink" 
	 width="96px" height="96px" viewBox="-212 344 154 154" xml:space="preserve">
 <path d="M-68.719,420.945c0.288,17.824-6.809,34.972-19.606,47.381c-12.393,12.646-29.455,19.621-47.159,19.274
    c-17.777,0.265-34.875-6.809-47.272-19.553c-26.074-25.985-26.149-68.189-0.162-94.265c0.055-0.055,0.107-0.109,0.162-0.164
    c12.433-12.662,29.528-19.653,47.272-19.33c17.744-0.273,34.813,6.803,47.159,19.552
    C-75.575,386.168-68.482,403.212-68.719,420.945z M-72.772,420.945c-5.167-11.522-13.534-21.318-24.108-28.218
    c-11.447-7.813-25.025-11.906-38.883-11.72c-13.849-0.128-27.411,3.958-38.883,11.72c-10.409,6.997-18.644,16.772-23.773,28.218
    c11.21,24.478,35.732,40.109,62.656,39.938C-108.756,461.06-84.134,445.447-72.772,420.945z M-99.991,420.945
    c-0.031,19.59-15.903,35.464-35.493,35.493c-19.542-0.035-35.356-15.905-35.32-35.446c0.035-19.542,15.905-35.354,35.445-35.32
    c9.348,0.016,18.307,3.73,24.924,10.332C-103.625,402.496-99.84,411.539-99.991,420.945z" fill="white" />
</svg>
